<svg width="21" height="5" viewBox="0 0 21 5" fill="none" xmlns="http://www.w3.org/2000/svg">
<path fill-rule="evenodd" clip-rule="evenodd" d="M2.32 4.64C3.6013 4.64 4.64 3.6013 4.64 2.32C4.64 1.0387 3.6013 0 2.32 0C1.0387 0 0 1.0387 0 2.32C0 3.6013 1.0387 4.64 2.32 4.64Z" fill="#3897F0"/>
<path fill-rule="evenodd" clip-rule="evenodd" d="M10.0534 4.64C11.3347 4.64 12.3734 3.6013 12.3734 2.32C12.3734 1.0387 11.3347 0 10.0534 0C8.7721 0 7.7334 1.0387 7.7334 2.32C7.7334 3.6013 8.7721 4.64 10.0534 4.64Z" fill="black" fill-opacity="0.15"/>
<path fill-rule="evenodd" clip-rule="evenodd" d="M17.7867 4.64C19.068 4.64 20.1067 3.6013 20.1067 2.32C20.1067 1.0387 19.068 0 17.7867 0C16.5054 0 15.4667 1.0387 15.4667 2.32C15.4667 3.6013 16.5054 4.64 17.7867 4.64Z" fill="black" fill-opacity="0.15"/>
</svg>
